# xmcd
#
# Track frame offsets: 
#        150
#        13264
#        42477
#        56284
#        68918
#        83908
#        101427
#        118629
#        131663
#        144497
#        159791
#        171693
#        188736
#        207508
#        220476
#        236330
#        252908
#        268824
#        283877
#        298101
#
# Disc length: 4180 seconds
#
# Revision: 0
# Processed by: cddbd v1.5.2PL0 Copyright (c) Steve Scherf et al.
# Submitted via: ExactAudioCopyFreeDBPlugin 1.0
#
DISCID=39105214
DTITLE=Jukka Kuoppamäeki - Mies ja Kitara, CD 1
DYEAR=1900
DGENRE=Folk/Rock
TTITLE0=Mies ja Kitara
TTITLE1=Anna mulle tähtitaivas
TTITLE2=Sinussa on valo
TTITLE3=Sä kosketit mua
TTITLE4=Rauhaa ja rakkautta
TTITLE5=Lauluja tältä planeetalta
TTITLE6=Suuret tunteet
TTITLE7=Yhteen hiileen
TTITLE8=Levität siivet
TTITLE9=Sininen
TTITLE10=Suuri kuu
TTITLE11=Missä ollut sä oot
TTITLE12=Kaipuun sininen kukka
TTITLE13=Kesä kuuskytyks
TTITLE14=Pikajuna Pohjoiseen
TTITLE15=Vanhaa viiniä
TTITLE16=Hiljaisuudessa
TTITLE17=Kotiin luokse sun
TTITLE18=Matkalla tuntemattomaan
TTITLE19=Tietä pitkin
EXTD=
EXTT0=
EXTT1=
EXTT2=
EXTT3=
EXTT4=
EXTT5=
EXTT6=
EXTT7=
EXTT8=
EXTT9=
EXTT10=
EXTT11=
EXTT12=
EXTT13=
EXTT14=
EXTT15=
EXTT16=
EXTT17=
EXTT18=
EXTT19=
PLAYORDER=
